<svg xmlns="http://www.w3.org/2000/svg" viewBox="0 0 100 100">
  <rect width="100" height="100" fill="#000000" />
  <g fill="none" stroke="#ffffff" stroke-width="5.5" stroke-linecap="round" stroke-linejoin="round">
    <!-- hood / head, draping longer on the left -->
    <path d="M31 38 C29 24, 40 13, 50 13 C60 13, 69 21, 67 34 C66 40, 60 42, 55 42 L44 42 C36 42, 31 48, 30 58" />
    <!-- legs -->
    <path d="M40 55 L38 94" />
    <path d="M57 42 L58 94" />
    <!-- left arm, pointing up-left -->
    <path d="M31 46 L18 54 L17 62" />
    <path d="M18 54 L4 47" />
    <!-- right arm, pointing up-right -->
    <path d="M63 38 L77 46 L78 54" />
    <path d="M77 46 L92 39" />
  </g>
  <g fill="#ffffff">
    <ellipse cx="45" cy="27" rx="2.6" ry="3.2" />
    <ellipse cx="58" cy="26" rx="2.6" ry="3.2" />
  </g>
  <path d="M45 33 Q51 37 57 32" fill="none" stroke="#ffffff" stroke-width="3" stroke-linecap="round" />
</svg>
